<svg xmlns="http://www.w3.org/2000/svg" xmlns:xlink="http://www.w3.org/1999/xlink" width="325" height="381" viewBox="0 0 325 381">
  <defs>
    <clipPath id="clip-gif">
      <rect width="325" height="381"/>
    </clipPath>
  </defs>
  <g id="gif" clip-path="url(#clip-gif)">
    <g id="Fichier_4" data-name="Fichier 4" transform="translate(0 0.015)">
      <g id="Calque_1" data-name="Calque 1">
        <path id="Tracé_1" data-name="Tracé 1" d="M302.81,301.79a3,3,0,0,1-.26.51,35.31,35.31,0,0,0-4.26,6.65c-1.32,2.55-2.56,5.15-3.87,7.71-1.45,2.85-2.89,5.7-4.42,8.51a58.422,58.422,0,0,1-5.8,8.8,32.391,32.391,0,0,1-6.54,6.32,20.9,20.9,0,0,1-14.72,3.83,33.559,33.559,0,0,1-9.82-2.94,59.093,59.093,0,0,1-10.39-6.42,108.123,108.123,0,0,1-10.67-9.28c-5.72-5.61-11.12-11.5-16.38-17.53-2.94-3.38-5.81-6.82-8.72-10.22a3.43,3.43,0,0,0-1.3-1.19c-.52.2-1.11.42-1.69.66l-49.58,20.53-10.19,4.21a9.818,9.818,0,0,1-1.59.51,1.53,1.53,0,0,1-1.6-.81c-.25-.5-.47-1-.69-1.53q-1.89-4.53-3.77-9.07c-.18-.45-.35-.89-.55-1.33-.39-.91-.7-1-1.69-.63-.74.29-1.48.6-2.22.91-.29.12-.58.25-.89.35a1.74,1.74,0,0,1-2.36-1c-.2-.44-.37-.88-.56-1.33q-1.87-4.53-3.77-9.07c-.21-.52-.42-1-.65-1.55a.88.88,0,0,0-1.21-.43c-.52.2-1,.41-1.55.63s-1,.45-1.55.64a4.36,4.36,0,0,1-.93.23,1.57,1.57,0,0,1-1.61-.8c-.25-.5-.47-1-.68-1.53q-1.89-4.55-3.77-9.08c-.22-.52-.42-1-.65-1.55a.92.92,0,0,0-1.37-.5c-.67.26-1.32.55-2,.83-.44.18-.89.37-1.34.52a1.74,1.74,0,0,1-2.36-1c-.49-1.09-.94-2.2-1.4-3.31l-2.94-7.09c-.21-.51-.42-1-.65-1.54a.87.87,0,0,0-1.2-.44l-1.56.63c-.51.21-1,.45-1.54.64a5.061,5.061,0,0,1-.93.23,1.54,1.54,0,0,1-1.61-.8c-.28-.57-.53-1.16-.77-1.75l-3.78-9.08c-.21-.51-.43-1-.66-1.54a.85.85,0,0,0-1-.36c-.6.22-1.19.47-1.78.7s-1.18.51-1.78.71a1.72,1.72,0,0,1-2.37-1c-.52-1.17-1-2.36-1.48-3.54-1-2.36-2-4.72-2.94-7.09-.21-.51-.45-1-.69-1.52a.8.8,0,0,0-.84-.3c-.23.07-.46.14-.68.23-.82.33-1.62.69-2.44,1a6.566,6.566,0,0,1-1.15.33,1.53,1.53,0,0,1-1.61-.79c-.28-.57-.52-1.16-.77-1.75q-1.89-4.54-3.77-9.08c-.22-.52-.43-1-.67-1.54a.84.84,0,0,0-1-.37c-.59.22-1.19.46-1.78.7s-1,.45-1.55.64a1.85,1.85,0,0,1-2.7-1.13c-.59-1.49-1.23-2.95-1.84-4.43-.86-2.06-1.7-4.14-2.56-6.2-.18-.44-.4-.87-.61-1.3a.77.77,0,0,0-.83-.31L48,226a9.291,9.291,0,0,1-1.36.42,1.52,1.52,0,0,1-1.62-.78c-.31-.64-.58-1.31-.86-2L19.37,163.9q-5.88-14.18-11.74-28.36c-.27-.66-.56-1.32-.79-2a1.64,1.64,0,0,1,.91-2.19c.65-.31,1.32-.58,2-.86l57.09-23.65a6.38,6.38,0,0,0,2.33-1.16,2.84,2.84,0,0,0-.75-1.47L59.87,91.44,1.1,2.91C.7,2.32.34,1.7,0,1.15A1.84,1.84,0,0,1,1.27,0,.46.46,0,0,1,1.7.11c.4.49.79,1,1.15,1.52,3.71,5.6,7.4,11.21,11.12,16.8q28,42,55.93,84.09c2,3,1.11,2.58,4.22,1.3q24.69-10.17,49.34-20.45,1-.42,2-.78a1.55,1.55,0,0,1,1.86.67c.3.56.56,1.15.81,1.74,1.35,3.24,2.68,6.5,4,9.74a11.666,11.666,0,0,0,.65,1.27.52.52,0,0,0,.42.17,2.34,2.34,0,0,0,.68-.17c1.18-.47,2.36-1,3.56-1.42a1.53,1.53,0,0,1,1.85.67c.3.56.56,1.15.81,1.74q2.025,4.875,4,9.74a9.432,9.432,0,0,0,.64,1.27.56.56,0,0,0,.42.18,2.73,2.73,0,0,0,.68-.18c1.19-.47,2.37-1,3.56-1.42a1.53,1.53,0,0,1,1.86.67c.29.57.55,1.15.8,1.74q2.025,4.875,4,9.75a9.509,9.509,0,0,0,.65,1.27.52.52,0,0,0,.41.17,2.73,2.73,0,0,0,.68-.18c1.19-.47,2.37-1,3.56-1.42a1.51,1.51,0,0,1,1.86.68c.29.56.55,1.14.8,1.73l4,9.75a8.942,8.942,0,0,0,.65,1.27.52.52,0,0,0,.41.17,2.73,2.73,0,0,0,.68-.18c1.19-.47,2.37-1,3.56-1.42a1.51,1.51,0,0,1,1.86.68,18.254,18.254,0,0,1,.8,1.74q2,4.86,4,9.74a10.13,10.13,0,0,0,.65,1.27.53.53,0,0,0,.41.17,2.3,2.3,0,0,0,.68-.19c1.19-.46,2.37-1,3.56-1.41a1.51,1.51,0,0,1,1.86.68,18.249,18.249,0,0,1,.8,1.74c1.35,3.24,2.69,6.5,4,9.74a10.133,10.133,0,0,0,.65,1.27.54.54,0,0,0,.42.17,2.381,2.381,0,0,0,.68-.19c1.18-.46,2.36-1,3.56-1.41a1.5,1.5,0,0,1,1.85.68,18.25,18.25,0,0,1,.8,1.74q2,4.88,4,9.74a10.128,10.128,0,0,0,.65,1.27.52.52,0,0,0,.42.17,2.38,2.38,0,0,0,.68-.19c1.19-.47,2.37-1,3.56-1.42a1.52,1.52,0,0,1,1.85.69c.3.57.56,1.15.8,1.74l4,9.75a10,10,0,0,0,.65,1.26.52.52,0,0,0,.42.17,2.379,2.379,0,0,0,.68-.19c1.19-.47,2.37-1,3.56-1.42a1.52,1.52,0,0,1,1.85.69c.33.64.62,1.3.9,2q4.59,11.09,9.17,22.15l27.17,65.55c.34.82.69,1.62,1,2.44a1.7,1.7,0,0,1-1,2.36c-.5.23-1,.43-1.55.64l-48.46,20.1a5.5,5.5,0,0,0-2.36,1.24c.23.31.44.65.69,1,7.32,8.8,14.86,17.4,22.92,25.53A108,108,0,0,0,245.35,334a53.34,53.34,0,0,0,8.83,5.29,31.349,31.349,0,0,0,7.25,2.41,18.72,18.72,0,0,0,13.82-2.41,27.12,27.12,0,0,0,6.29-5.51,52.559,52.559,0,0,0,4.77-6.61c1.73-2.79,3.28-5.67,4.74-8.61s2.84-5.73,4.26-8.59a55.854,55.854,0,0,1,3.52-6.27c.67-1,1.45-1.9,2.19-2.84a.7.7,0,0,1,1.06.05A11.234,11.234,0,0,1,302.81,301.79ZM47.46,222.74c.39-.11.7-.19,1-.3s.73-.31,1.1-.48a.78.78,0,0,0,.47-1c-.26-.67-.53-1.34-.8-2Q37.75,191.27,26.29,163.6c-2.26-5.46-4.54-10.92-6.79-16.39a18.759,18.759,0,0,1-.73-2,1.58,1.58,0,0,1,.83-1.82c.73-.34,1.47-.64,2.2-.95l51.56-21.33c1.48-.62,2.94-1.25,4.41-1.88a.46.46,0,0,0,.24-.58,3.48,3.48,0,0,0-.32-.64q-2.86-4.29-5.75-8.56c-.56-.84-.91-.94-1.8-.59-.52.21-1,.44-1.55.66L18.13,130.43c-2.36,1-4.71,2-7.07,2.95a.73.73,0,0,0-.45,1q.38,1,.78,2,12.86,31,25.7,62l9.18,22.14a5.7,5.7,0,0,0,1.19,2.22ZM80,121.83c-.83.32-1.65.62-2.46,1L24.67,144.71c-.59.24-1.17.49-1.76.75a.74.74,0,0,0-.32.81c.25.67.49,1.35.77,2Q34.6,175.4,45.83,202.51q3.26,7.85,6.53,15.7c.22.52.43,1,.66,1.54a.76.76,0,0,0,.8.38c.67-.26,1.33-.52,2-.81.13-.06.2-.25.35-.45-.29-.76-.58-1.58-.92-2.38q-5.86-14.16-11.76-28.33L31.56,159.39q-.43-.98-.76-2a1.62,1.62,0,0,1,.89-2c.72-.33,1.46-.63,2.2-.94L80.78,135l5.07-2.14c.22-.09.45-.17.67-.27a.65.65,0,0,0,.33-1q-3.13-4.68-6.3-9.35a3,3,0,0,0-.55-.41Zm125.85,171a6.7,6.7,0,0,0,2.51-.83c6.87-2.82,13.72-5.68,20.58-8.52L256.59,272c1.5-.63,1.5-.65.93-2.07-.14-.37-.3-.74-.45-1.11q-14.55-35.1-29.08-70.21-3-7.31-6.07-14.61a15.877,15.877,0,0,0-.74-1.49.47.47,0,0,0-.41-.16c-2.92,1.15-2.85.58-1.74,3.32.09.22.18.44.28.66q14.81,35.76,29.63,71.53c.21.52.45,1,.65,1.55a1.71,1.71,0,0,1-1,2.35c-.43.21-.88.38-1.32.56l-21,8.71-26.55,11a14.869,14.869,0,0,0-1.51.72.46.46,0,0,0-.12.41,2,2,0,0,0,.36.62c2.3,2.86,4.62,5.72,6.93,8.58a4.29,4.29,0,0,0,.46.43ZM96.06,145.28c-.22-.36-.46-.76-.73-1.16l-5.11-7.54c-.22-.33-.45-.65-.69-1a.84.84,0,0,0-1-.36q-.78.3-1.56.63l-47.33,19.6c-1.47.61-3,1.21-4.41,1.85a4.349,4.349,0,0,0-.77.61c.35.87.67,1.69,1,2.5Q43.22,179.24,51,198.05q3.7,9,7.43,17.92c.18.44.38.88.59,1.31a.76.76,0,0,0,1,.34c.52-.21,1-.43,1.54-.66a2.651,2.651,0,0,0,.5-.34,8,8,0,0,0-.81-2.43l-11-26.56q-3.44-8.3-6.87-16.6a14.841,14.841,0,0,1-.64-1.8,1.58,1.58,0,0,1,.83-1.82c.72-.34,1.46-.64,2.2-.94l40-16.57c3-1.25,6-2.5,9.06-3.76A1.632,1.632,0,0,0,96.06,145.28ZM245.88,259.14a6.23,6.23,0,0,0-.76-2.22l-22-53.15q-3.5-8.42-7-16.82c-.24-.59-.5-1.18-.77-1.76a.6.6,0,0,0-.77-.34c-.52.2-1,.44-1.56.62a.85.85,0,0,0-.56,1.3c.23.51.44,1,.66,1.55Q225,217.11,237,245.9c.24.59.5,1.17.7,1.78a1.55,1.55,0,0,1-.75,1.84c-.57.3-1.16.55-1.74.79l-31.43,13c-4.72,2-9.44,3.9-14.16,5.87a12.157,12.157,0,0,0-1.48.76.42.42,0,0,0-.1.4,9.481,9.481,0,0,0,.78,1.2c1.37,1.77,2.75,3.53,4.13,5.3l1.93,2.45c.55.69.89,1,1.82.52.35-.18.74-.31,1.1-.47l33-13.65L244.45,260A2.77,2.77,0,0,0,245.88,259.14Zm-67.81-1.8c.2.3.39.64.63,1,1.77,2.36,3.54,4.73,5.35,7.07s1.29,2.17,4.07,1q21.78-9,43.57-18c2.77-1.15,2.56-.7,1.38-3.53q-8.55-20.7-17.14-41.4-3-7.18-6-14.38a15.875,15.875,0,0,0-.74-1.49.49.49,0,0,0-.41-.17,1.85,1.85,0,0,0-.7.13c-2,.83-2.1.67-1.25,2.65.12.3.23.6.35.89l17.7,42.72c.25.59.51,1.18.73,1.78a1.59,1.59,0,0,1-.81,2c-.57.29-1.16.52-1.75.77l-31.41,13c-4.13,1.71-8.25,3.44-12.38,5.14a2.23,2.23,0,0,0-1.19.82ZM68.2,214.07c-.24-.62-.44-1.22-.68-1.79q-2.37-5.76-4.76-11.52-3.63-8.73-7.25-17.48a18.757,18.757,0,0,1-.73-2,1.55,1.55,0,0,1,.8-1.83c.57-.28,1.17-.5,1.76-.74L89.4,165.38l13.93-5.77c.51-.22,1-.46,1.5-.73a.46.46,0,0,0,.15-.41,1.9,1.9,0,0,0-.31-.64q-3-4.37-6-8.71a1.82,1.82,0,0,0-.29-.38.89.89,0,0,0-.89-.22c-.6.21-1.2.42-1.79.66L48.42,168.8c-.52.21-1,.44-1.53.68a.71.71,0,0,0-.29.82c.13.37.27.75.42,1.12l17.42,42.05c.94,2.27.72,2,2.89,1.14a5.46,5.46,0,0,0,.87-.54Zm75.27,104.72c.87-.34,1.69-.65,2.5-1l46-19,10.38-4.31c.42-.18.9-.28,1.15-.81-.16-.24-.32-.51-.52-.76q-3.37-4.2-6.77-8.39c-.05-.07-.11-.12-.16-.18A1,1,0,0,0,195,284a11.553,11.553,0,0,0-1.11.43l-13.92,5.77L141,306.31a20.134,20.134,0,0,0-1.95.89c-.16.08-.23.39-.28.61a.86.86,0,0,0,.1.46q2.01,4.875,4,9.74a4.08,4.08,0,0,0,.6.78Zm25-74.44a5.278,5.278,0,0,0,.33.62l6.42,8.67a1.829,1.829,0,0,0,.31.36.91.91,0,0,0,.89.21c.68-.24,1.35-.49,2-.77l27.43-11.35q7.31-3,14.59-6.07a11.668,11.668,0,0,0,1.27-.65.43.43,0,0,0,.16-.41c-.22-.68-.45-1.36-.73-2q-6.4-15.49-12.83-31-2.25-5.43-4.51-10.84a7.51,7.51,0,0,0-.56-1.05.5.5,0,0,0-.4-.22,3.67,3.67,0,0,0-2.34,1c-.48.6.24,1.18.37,1.77a4.211,4.211,0,0,0,.28.66L213,221.88c.24.59.5,1.17.71,1.78a1.54,1.54,0,0,1-.74,1.85,18,18,0,0,1-1.73.79q-15.7,6.52-31.42,13l-10.4,4.31a1.69,1.69,0,0,0-.97.74ZM58.48,182c.28.74.54,1.49.84,2.22q3.9,9.41,7.81,18.81l3.57,8.63a2.07,2.07,0,0,0,.8,1.17,6.35,6.35,0,0,0,2.6-1.23,5.9,5.9,0,0,0-.22-.9c-.31-.82-.66-1.63-1-2.44q-2.72-6.53-5.42-13a18,18,0,0,1-.7-2,1.49,1.49,0,0,1,.72-1.64c.56-.29,1.15-.53,1.74-.78l29.85-12.38,13.7-5.69a2.43,2.43,0,0,0,1.38-.88c-.15-.27-.29-.55-.47-.81q-2.91-4.26-5.83-8.5c-.14-.2-.29-.38-.44-.57a.77.77,0,0,0-.87-.2l-1.55.65-44.46,18.4c-.51.22-1,.42-1.53.67C58.8,181.52,58.67,181.75,58.48,182Zm134.63,99a1.7,1.7,0,0,0-.2-.6L186,271.5a1.28,1.28,0,0,0-.35-.31.69.69,0,0,0-.45-.11c-.6.2-1.19.44-1.78.69l-48.41,20c-.67.27-1.32.57-2,.86a.68.68,0,0,0-.27.83q2.06,5,4.12,9.95a.89.89,0,0,0,1.32.59c.6-.23,1.18-.48,1.77-.73l48.41-20q2.2-.91,4.4-1.88C192.9,281.35,193,281.17,193.11,281Zm-9.92-12.74a1.7,1.7,0,0,0-.49-1.08L176.48,259c-.15-.19-.31-.37-.46-.55a.73.73,0,0,0-.87-.19l-1.55.65-15.48,6.39-29.18,12.09c-.66.28-1.32.58-2,.9a.51.51,0,0,0-.23.61,3.921,3.921,0,0,0,.2.69q1.92,4.65,3.85,9.29a1.66,1.66,0,0,0,.38.61.85.85,0,0,0,.62.21c.68-.22,1.35-.5,2-.77l21.5-8.93,26.29-10.92a5,5,0,0,0,1.64-.82ZM73.69,107.48a1.16,1.16,0,0,0,.2,1l5.89,8.76c.53.79.86.86,1.83.48.44-.17.88-.37,1.32-.55l20.35-8.43,24.34-10.09c.59-.24,1.16-.51,1.74-.79a.68.68,0,0,0,.3-.82l-4.23-10.18-.1-.21a.67.67,0,0,0-.83-.25L118.08,89,76,106.44C75.23,106.77,74.44,107.14,73.69,107.48Zm120.56,86.07c.24.6.43,1.13.65,1.64l6,14.62c.24.59.51,1.18.72,1.78a1.59,1.59,0,0,1-.86,2c-.57.29-1.16.52-1.75.76L175.81,224,161,230.15c-.59.24-1.16.52-1.74.79a.56.56,0,0,0-.17.63,8.389,8.389,0,0,0,.5.81c1.88,2.59,3.77,5.17,5.64,7.76.82,1.12,1,1.48,2.55.73.29-.14.6-.23.9-.35l28.08-11.66L208.48,224a2.61,2.61,0,0,0,1.39-.86,4.64,4.64,0,0,0-.66-2q-4.8-11.64-9.63-23.26c-.7-1.69-1.42-3.38-2.14-5.07a.71.71,0,0,0-1-.46,5.41,5.41,0,0,0-2.19,1.2Zm-114.2,15.6a4.06,4.06,0,0,0-.51-1.8c-.27-.75-.57-1.49-.79-2.25a1.49,1.49,0,0,1,.77-1.62c.79-.38,1.6-.73,2.41-1.06l38.71-16c.74-.3,1.47-.63,2.2-1a.63.63,0,0,0,.21-.82l-.11-.22q-3.14-4.53-6.28-9.07a.92.92,0,0,0-1-.36c-.53.18-1,.38-1.57.59L89.27,185.83q-8.85,3.67-17.7,7.35a4.07,4.07,0,0,0-.82.45.51.51,0,0,0-.2.4,10.88,10.88,0,0,0,.46,1.36q2.73,6.65,5.49,13.29a9,9,0,0,0,.6,1.3.66.66,0,0,0,.59.27,6,6,0,0,0,2.36-1.1Zm51-108.33a7,7,0,0,0-2.45.83q-16.38,6.76-32.75,13.58l-12,5a2.78,2.78,0,0,0-1.41.86,31.19,31.19,0,0,0,2.06,3.21q2.07,3.09,4.16,6.16c.49.72.81,1.09,1.76.59a8.66,8.66,0,0,1,.89-.35L133.8,113a14.781,14.781,0,0,0,1.53-.67c.19-.09.29-.36.47-.61l-4.46-10.59a1.53,1.53,0,0,0-.34-.31Zm35,144.25-1.85.74L134,258.28l-12,5a2.55,2.55,0,0,0-1.4.89,4.39,4.39,0,0,0,.17.67l4,9.52a1.87,1.87,0,0,0,.32.63.8.8,0,0,0,.61.26,18.145,18.145,0,0,0,1.78-.68l19-7.88,25.22-10.46a4.57,4.57,0,0,0,1.64-.88,1.57,1.57,0,0,0-.09-.47c-.65-1.19-6.19-8.58-7.25-9.81ZM137.07,115.35a4.63,4.63,0,0,0-.93.16c-.6.21-1.18.47-1.77.71L97.88,131.33l-5.74,2.39a1.07,1.07,0,0,0-.68.71c.22.36.45.78.72,1.17,1.65,2.45,3.29,4.91,5,7.34,1.35,1.94.93,1.86,3.19.92l34.49-14.28,6.4-2.67a.75.75,0,0,0,.41-1q-2.07-5-4.15-9.94A3.82,3.82,0,0,0,137.07,115.35Zm12.58,102.56a1,1,0,0,0,.22,1l6.28,8.76a3.472,3.472,0,0,0,.31.36.8.8,0,0,0,.88.23c.6-.21,1.18-.47,1.77-.71l23.2-9.62L196.44,212a8.937,8.937,0,0,0,1.27-.65.45.45,0,0,0,.15-.41c-.19-.6-.39-1.21-.63-1.79-1.7-4.13-3.42-8.26-5.13-12.39-.21-.51-.43-1-.66-1.54a.73.73,0,0,0-1-.42c-.59.25-1.17.51-1.75.78a.65.65,0,0,0-.35.79c.38,1,.79,1.92,1.16,2.88a1.74,1.74,0,0,1-1.06,2.52c-.43.2-.88.36-1.33.55L152.2,216.78c-.85.37-1.72.77-2.55,1.13Zm14.11,24.56a1.4,1.4,0,0,0-.38-1.17q-3-4.17-6.07-8.33c-.14-.2-.3-.38-.45-.56a.87.87,0,0,0-.88-.2l-1.33.54-38,15.76c-.58.25-1.14.55-1.7.86a.52.52,0,0,0-.18.4,1.91,1.91,0,0,0,.18.69q1.95,4.77,3.93,9.52c.06.15.16.28.23.42a.61.61,0,0,0,.79.33l3.1-1.28q19.23-8,38.47-15.93c.76-.33,1.53-.71,2.29-1.05Zm-63.25-95a1.3,1.3,0,0,0,.09.46q3.15,4.66,6.33,9.31a1,1,0,0,0,.34.33.72.72,0,0,0,.44.11,4.762,4.762,0,0,0,.91-.27l37.79-15.64c.43-.18.85-.41,1.19-.57a1.78,1.78,0,0,0-.23-1.49c-1.2-3-2.44-5.89-3.67-8.84-.07-.14-.12-.29-.19-.44a.87.87,0,0,0-1.16-.52c-.52.19-1,.39-1.56.61l-23.41,9.73-15.48,6.4a2.65,2.65,0,0,0-1.39.82Zm12.79,98.85a9,9,0,0,0,1.82-.59l37.32-15.48c.58-.24,1.15-.52,1.71-.82a.47.47,0,0,0,.14-.42,1.91,1.91,0,0,0-.29-.65l-6.14-8.56c-.52-.72-.87-.82-1.63-.53l-.88.37-34.91,14.45c-.37.16-.74.31-1.1.48-.56.25-.74.61-.55,1.12a1.449,1.449,0,0,0,.09.22q2,4.76,4,9.5.187.465.42.91Zm3.19-75.21,4.65-1.9,30.54-12.65c.58-.25,1.17-.51,1.74-.8a.5.5,0,0,0,.28-.59,11.749,11.749,0,0,0-.41-1.13c-1.09-2.66-2.21-5.31-3.29-8-.91-2.24-.82-2-2.9-1.19q-17.83,7.37-35.63,14.77c-.52.21-1,.44-1.53.68a.65.65,0,0,0-.22,1l.12.21,6.12,8.89a5.6,5.6,0,0,0,.53.71Zm2.19,2.65a1,1,0,0,0,.18.89L125,183.5a3.474,3.474,0,0,0,.31.36.83.83,0,0,0,.88.2c.53-.18,1-.4,1.56-.61l19.88-8.25,11-4.57c.42-.18.9-.32,1.09-.84-.07-.22-.13-.45-.22-.67l-3.93-9.51a2.91,2.91,0,0,0-.35-.62,1.53,1.53,0,0,0-.39-.25c-2.36.83-34.33,14.11-36.15,15.02Zm13.76,24.62a2,2,0,0,0-.14-.52l-3.3-4.71a.39.39,0,0,0-.18-.16,1.38,1.38,0,0,0-.66-.14,9.462,9.462,0,0,0-1.34.51L86.39,210.12a13.69,13.69,0,0,0-1.48.75.56.56,0,0,0-.2.41,1,1,0,0,0,.1.46q2.06,5,4.13,9.95a1.28,1.28,0,0,0,.25.4c.11.09.3.22.41.18.68-.23,1.34-.49,2-.77a.63.63,0,0,0,.41-.94c-.32-.82-.67-1.62-1-2.44a4.41,4.41,0,0,1-.3-1.16,1.4,1.4,0,0,1,.71-1.42,16,16,0,0,1,1.51-.71l12.81-5.31,24.54-10.15c.72-.3,1.46-.66,2.16-.99Zm9.23,12.75c-1.16-1.63-2.28-3.38-3.6-5-.09-.11-.28-.14-.47-.22l-1.52.6L98.44,222.09l-.87.39c-.9.39-1,.62-.68,1.43q2,4.77,4,9.52a10,10,0,0,0,.47.9,8.57,8.57,0,0,0,2.26-.81c.47-.21.62-.5.45-.93-.32-.82-.67-1.63-1-2.45a4.669,4.669,0,0,1-.31-1.15,1.38,1.38,0,0,1,.69-1.43,15.921,15.921,0,0,1,1.73-.8l31-12.85q2.43-1,4.87-2a1.1,1.1,0,0,0,.62-.78Zm42.17-17.31c-1.47-3.54-2.9-7-4.34-10.47a1.23,1.23,0,0,0-.27-.4,1.42,1.42,0,0,0-.41-.2.37.37,0,0,0-.23,0c-.66.28-1.33.56-2,.87a.5.5,0,0,0-.26.61c.36,1,.75,1.93,1.13,2.9.51,1.35.22,2.05-1.14,2.66-.43.2-.88.37-1.32.55l-6,2.47-26.54,11c-.67.27-1.31.59-2,.89a.47.47,0,0,0-.22.6,6.179,6.179,0,0,0,.37.61c1,1.37,1.93,2.75,2.91,4.11a.84.84,0,0,0,1,.32c.44-.17.89-.35,1.33-.54l18.57-7.7q8.52-3.52,17-7.06a5.16,5.16,0,0,0,2.42-1.22ZM164.3,172a7.11,7.11,0,0,0,.26.9c.34.89.73,1.77,1.07,2.67a1.57,1.57,0,0,1-.78,2c-.57.3-1.16.53-1.75.78L135.23,189.9l-3.54,1.46a1.07,1.07,0,0,0-.66.75c1,1.59,2.13,3.1,3.22,4.68a1,1,0,0,0,.86.54l1.44-.57,23-9.52c3.61-1.49,7.22-3,10.83-4.5a2.55,2.55,0,0,0,1.4-.91c-.19-.5-.38-1-.6-1.54q-1.45-3.54-2.93-7.08c-.28-.67-.55-1.34-.84-2a3.351,3.351,0,0,0-.39-.59A7.74,7.74,0,0,0,164.3,172Zm-39.09,16.09a2.31,2.31,0,0,0-.46,0l-1.55.65-20.8,8.62-18.8,7.79a5.158,5.158,0,0,0-.84.44.94.94,0,0,0-.23.39v.23a11.716,11.716,0,0,0,.45,1.11.6.6,0,0,0,.76.4c1.7-.69,3.41-1.35,5.11-2L124.27,191c.67-.28,1.31-.59,2-.89a.54.54,0,0,0,.17-.63,3.24,3.24,0,0,0-1-1.34.88.88,0,0,0-.23-.09Zm10.58,15.1c-1-2.26-1.26-2.17-3-1.42a2,2,0,0,1-.22.09l-36.4,15.03c-.44.19-.87.4-1.3.6a.62.62,0,0,0-.27.81,11.56,11.56,0,0,0,.61,1.28.5.5,0,0,0,.41.17c.61-.19,1.21-.38,1.8-.63l36.2-15c.74-.29,1.45-.64,2.17-.97ZM185.88,199a2.59,2.59,0,0,0-.75-1.7c-.44-.37-.89.14-1.33.23a3.488,3.488,0,0,0-.66.29L148,212.41c-.52.21-1,.45-1.53.68a.48.48,0,0,0-.21.61c.26.4.52.81.8,1.19s.57.39,1.06.19l8.62-3.58,27-11.15c.66-.28,1.3-.59,1.94-.92C185.77,199.38,185.81,199.18,185.88,199Zm-78.4,32.81c.79-.3,1.54-.55,2.27-.85q8.94-3.72,17.87-7.44l15.46-6.38c.58-.25,1.15-.53,1.71-.83.1-.06.23-.31.19-.39-.76-1.48-1.06-2-2.47-1.27-.21.1-.45.16-.67.25l-30.46,12.64c-1.4.58-2.8,1.14-4.19,1.74a3.43,3.43,0,0,0-.7.54,3.45,3.45,0,0,0,.99,2.03Zm30.68-29.8a7.661,7.661,0,0,0,2.48-.84q10-4.11,19.91-8.25l11.94-5a2.72,2.72,0,0,0,1.4-.85,3.08,3.08,0,0,0-.82-1.9c-.12,0-.21-.05-.27,0l-34.75,14.32c-.37.15-.71.35-1.17.58a3.23,3.23,0,0,0,1.28,1.98Zm-8.91-13.13,1-.41,25.19-10.43c1.91-.79,3.83-1.58,5.73-2.38.71-.3.82-.61.52-1.32a3.78,3.78,0,0,0-.41-.86c-.13-.16-.43-.33-.59-.28a15.629,15.629,0,0,0-1.56.6L141.94,181l-13.25,5.51a3.46,3.46,0,0,0-.81.48.42.42,0,0,0-.1.41,13.676,13.676,0,0,0,1,1.34c.04.08.22.09.47.18Zm-13.14,89.87a3.39,3.39,0,0,0-.15-.45q-2-5-4.1-9.94a1.15,1.15,0,0,0-.27-.38c-.11-.1-.28-.22-.4-.2a2.46,2.46,0,0,0-.68.22l-1.32.56a.68.68,0,0,0-.42.95q2.06,5,4.13,9.93a2.38,2.38,0,0,0,.23.41.58.58,0,0,0,.63.24,5,5,0,0,0,2.17-.93c.07-.04.12-.23.18-.37Zm54.14-143.21c.19.5.36,1,.57,1.53,1.09,2.66,2.19,5.3,3.28,7.95.16.37.31.74.48,1.1a.82.82,0,0,0,1,.46c.66-.28,1.3-.58,1.94-.9a.48.48,0,0,0,.19-.4,2.43,2.43,0,0,0-.18-.69l-3.84-9.27a10.393,10.393,0,0,0-.53-1,5.23,5.23,0,0,0-2.91,1.26Zm12.12,11.83a2.66,2.66,0,0,0,.4,1.6c1.12,2.73,2.26,5.45,3.39,8.17.15.37.32.73.49,1.08a.76.76,0,0,0,.8.38c.6-.22,1.19-.45,1.77-.7a.75.75,0,0,0,.42-1q-2.12-5.07-4.22-10.15c0-.07,0-.17-.11-.21s-.45-.33-.6-.27a7,7,0,0,0-2.34,1.14ZM123.23,279.78a11.318,11.318,0,0,0-2.32,1,.68.68,0,0,0-.18.42.94.94,0,0,0,.07.46l4,9.7c.06.15.12.3.19.44a.79.79,0,0,0,.83.33c.66-.26,1.32-.53,2-.82.13-.06.19-.25.29-.38-.79-2.4-3.91-9.89-4.58-11C123.49,279.88,123.39,279.86,123.23,279.78Zm-36-36c-.44.16-.9.3-1.33.5-1.17.54-1.46.52-.87,1.89,1.06,2.49,2.07,5,3.1,7.51.27.66.56,1.32.86,2a.77.77,0,0,0,1,.46,18,18,0,0,0,1.76-.72c.19-.09.3-.35.47-.57q-2.15-5.19-4.3-10.37a1.2,1.2,0,0,0-.26-.4,1.75,1.75,0,0,0-.44-.3ZM137.15,98.34a5.27,5.27,0,0,0-2.9,1.24c.19.5.36,1,.57,1.53l3.28,8c.15.37.31.74.48,1.1a.82.82,0,0,0,1,.46c.65-.28,1.3-.57,1.94-.9a.51.51,0,0,0,.19-.4,2.431,2.431,0,0,0-.18-.69l-3.84-9.26C137.52,99,137.31,98.67,137.15,98.34Zm57.16,61.16a3.111,3.111,0,0,0,.14.66q2,5,4.1,9.93a1.431,1.431,0,0,0,.12.21.73.73,0,0,0,.82.33c.66-.27,1.31-.55,1.95-.86.12-.06.18-.25.3-.43-.09-.26-.18-.57-.3-.86-1.21-2.95-2.41-5.9-3.65-8.83-.7-1.66-.58-1.56-2.24-.9a2.6,2.6,0,0,0-1.24.75Zm-36.05-36a9,9,0,0,0,.28,1q2,4.76,3.92,9.49a2.75,2.75,0,0,0,.24.41.74.74,0,0,0,.83.31c.59-.23,1.18-.47,1.76-.73a.76.76,0,0,0,.32-1,2.09,2.09,0,0,0-.08-.23q-1.92-4.64-3.85-9.26c-.15-.37-.34-.71-.55-1.12a7,7,0,0,0-2.87,1.1Zm-83,108.32-.67.24-.45.16-.87.39c-.45.21-.62.53-.46.94l4.12,9.93a.9.9,0,0,0,1.32.6c.44-.17.88-.36,1.32-.55a1.06,1.06,0,0,0,.63-.76l-4.28-10.31a1.27,1.27,0,0,0-.26-.39,1.8,1.8,0,0,0-.45-.28Zm28.91,35.13a5.632,5.632,0,0,0-.18-.64l-4-9.72a1.16,1.16,0,0,0-.22-.41c-.17-.14-.43-.36-.57-.31a19.268,19.268,0,0,0-2.2.92c-.14.07-.16.4-.22.62a.51.51,0,0,0,.07.23l4.13,9.93a2,2,0,0,0,.1.21.78.78,0,0,0,.8.38c.67-.26,1.33-.52,2-.81a2.551,2.551,0,0,1,.24-.43Zm-40.81-47.1h-.22l-2.2.91c-.21.09-.29.54-.15.87q2.05,5,4.13,9.93l.09.21a.79.79,0,0,0,.8.39c.67-.25,1.34-.5,2-.81a.71.71,0,0,0,.29-.57,3.14,3.14,0,0,0-.3-.91q-1.87-4.51-3.76-9a6,6,0,0,0-.46-.82A.409.409,0,0,0,63.36,219.85Zm82.82-108.48c.23.66.36,1.11.54,1.55l3.39,8.16c.15.37.31.74.48,1.1a.84.84,0,0,0,1,.44c.59-.24,1.17-.49,1.75-.75a.69.69,0,0,0,.34-.81l-.08-.23-4-9.7a5.811,5.811,0,0,0-.43-.78,1.55,1.55,0,0,0-.54,0C147.85,110.65,147.12,111,146.18,111.37Zm60.15,60.07a2.84,2.84,0,0,0,.1.66q2,5,4.09,9.94c.25.6.71.75,1.38.48.37-.14.73-.3,1.1-.46.69-.31.84-.63.56-1.31q-2-4.75-3.94-9.49a2,2,0,0,0-.31-.64c-.14-.15-.44-.35-.58-.29a7.27,7.27,0,0,0-2.4,1.11Zm-127.6,59.1a1.779,1.779,0,0,0,.06.47q2.08,5.09,4.18,10.14a.9.9,0,0,0,.28.38.65.65,0,0,0,.43.14,4.63,4.63,0,0,0,2.16-.92c.15-.11.17-.41.19-.63a1,1,0,0,0-.12-.46q-2-4.72-3.94-9.47a7.55,7.55,0,0,0-.44-.8,4.8,4.8,0,0,0-2.8,1.15Zm5.92-2.42c.09.27.17.58.29.87q1.86,4.53,3.74,9.07c.09.22.19.44.3.65.23.52.57.63,1.17.39.44-.18.88-.36,1.31-.56a1,1,0,0,0,.69-.76l-4.26-10.26a1.2,1.2,0,0,0-.26-.4.54.54,0,0,0-.63-.22,5.22,5.22,0,0,0-2.35,1.22Zm-13.17,18.6a6.94,6.94,0,0,0,2.33-.93.76.76,0,0,0,.23-.63,3.31,3.31,0,0,0-.29-.89Q72,240,70.2,235.68c-.66-1.58-.69-1.58-2.25-.94a3.559,3.559,0,0,0-.86.4.87.87,0,0,0-.31.61,2.73,2.73,0,0,0,.24.91q1.86,4.51,3.74,9a2.17,2.17,0,0,0,.72,1.06ZM104.19,250c-.24-.61-.46-1.21-.7-1.79l-3.1-7.53c-.18-.44-.37-.88-.57-1.31a.78.78,0,0,0-1-.44c-.52.21-1,.43-1.54.66s-.72.55-.47,1.13l4,9.72a2.16,2.16,0,0,0,.35.61.55.55,0,0,0,.42.19,5.66,5.66,0,0,0,2.61-1.24Zm-13.48-7.46a4.128,4.128,0,0,0,.14.7q2,5,4.11,9.91a1,1,0,0,0,.28.38.55.55,0,0,0,.42.15c.67-.23,1.33-.48,2-.75a.76.76,0,0,0,.34-1L93.88,242c-.07-.15-.15-.29-.22-.43a.63.63,0,0,0-.63-.22,6.3,6.3,0,0,0-2.32,1.18Zm57-118.76c-.07-.22-.13-.45-.22-.67q-2-4.75-3.92-9.49a2.37,2.37,0,0,0-.37-.61c-.09-.1-.29-.23-.38-.2-.75.27-1.5.55-2.22.89-.15.07-.25.4-.26.61a1.91,1.91,0,0,0,.21.68q1.88,4.51,3.74,9a3.079,3.079,0,0,0,.45.84.76.76,0,0,0,.61.24,4.72,4.72,0,0,0,2.16-.91c.12-.06.15-.24.21-.39ZM83.41,258.83c.89-.37,1.64-.64,2.35-1,.16-.08.25-.39.3-.61a.86.86,0,0,0-.09-.46q-2.01-4.845-4-9.68a6.778,6.778,0,0,0-.48-.78,5.82,5.82,0,0,0-2.49.94.47.47,0,0,0-.18.41,2.79,2.79,0,0,0,.19.91q1.91,4.63,3.83,9.25A8.559,8.559,0,0,0,83.41,258.83Zm25.18-6.77c.24.64.42,1.17.63,1.68,1.07,2.58,2.15,5.15,3.22,7.73,1,2.27.72,2,2.89,1.14a4,4,0,0,0,.77-.48,2,2,0,0,0,0-.52q-2.1-5.08-4.21-10.17a.94.94,0,0,0-.27-.38c-.12-.1-.3-.21-.42-.18a6.41,6.41,0,0,0-2.61,1.18Zm1.52,12.33c-.09-.27-.15-.58-.27-.87q-1.86-4.53-3.73-9a3.39,3.39,0,0,0-.43-.85c-.13-.16-.44-.33-.59-.28a6.3,6.3,0,0,0-2.38,1.17,5.54,5.54,0,0,0,.19.88q1.95,4.74,3.92,9.48a4.229,4.229,0,0,0,.23.41.7.7,0,0,0,.79.38q1-.41,2-.87c.07-.1.16-.28.27-.45Zm-14.64,6.4c.79-.31,1.53-.6,2.26-.91a.81.81,0,0,0,.31-.83c-.05-.15-.08-.3-.14-.45-1.31-3.16-2.61-6.31-3.93-9.46a5.931,5.931,0,0,0-.46-.78,4.87,4.87,0,0,0-2.49.87c-.15.09-.2.41-.23.63a1.13,1.13,0,0,0,.1.46q2,4.85,4,9.68A4.34,4.34,0,0,0,95.47,270.79Zm26.64,5.57c-.11-.33-.23-.71-.37-1.07-.91-2.21-1.81-4.42-2.73-6.62-.39-1-.81-1.9-1.22-2.85-.21-.47-.51-.6-.94-.4a5.6,5.6,0,0,0-2.15,1.11,5.619,5.619,0,0,0,.21.88q1.94,4.74,3.91,9.48a2.75,2.75,0,0,0,.24.41.72.72,0,0,0,.8.37c.65-.28,1.3-.56,1.94-.87C121.92,276.74,122,276.55,122.11,276.36Zm80.81-103.58a7.55,7.55,0,0,0-2.38,1,.63.63,0,0,0-.18.42,1,1,0,0,0,.06.46q2,4.84,4,9.7a2.209,2.209,0,0,0,.37.6.56.56,0,0,0,.42.16,4.4,4.4,0,0,0,2.35-1c.06,0,.08-.14.16-.31-1.44-3.54-2.85-7.16-4.48-10.7-.02-.11-.19-.22-.32-.33Zm-32.66-3.14c1.47,3.55,2.88,7.2,4.51,10.74.06.12.25.19.43.33a7.41,7.41,0,0,0,2.48-1.2,1.36,1.36,0,0,0,0-.5q-2.08-5.08-4.21-10.16a1.07,1.07,0,0,0-.26-.39.68.68,0,0,0-.43-.16,5.23,5.23,0,0,0-2.36,1.07s-.08.13-.16.27ZM195.75,189a8,8,0,0,0-.25-.89q-2-4.74-3.92-9.48a1.94,1.94,0,0,0-.4-.58.58.58,0,0,0-.43-.15,4.81,4.81,0,0,0-2.18.89.57.57,0,0,0-.2.64,1.259,1.259,0,0,0,.15.45q1.9,4.63,3.83,9.26c.16.37.35.71.51,1a5.09,5.09,0,0,0,2.89-1.14Zm-6,2.42a4.209,4.209,0,0,0-.14-.67c-.88-2.14-1.77-4.27-2.67-6.41-.49-1.17-1-2.35-1.48-3.52a.74.74,0,0,0-1-.43c-.66.29-1.31.59-1.94.91a.54.54,0,0,0-.19.39,1.33,1.33,0,0,0,.13.46q2,5,4.1,10a1.31,1.31,0,0,0,.26.4c.11.1.29.23.4.2a6.41,6.41,0,0,0,2.37-1.05.7.7,0,0,0,.13-.33Zm-6.07-14.29a2.42,2.42,0,0,0-.38-1.6q-1.68-4.08-3.38-8.16c-.16-.36-.32-.72-.5-1.08a.72.72,0,0,0-.79-.38c-.66.26-1.32.52-2,.83a.54.54,0,0,0-.28.6,5.387,5.387,0,0,0,.22.68l3.73,9a3.82,3.82,0,0,0,.42.86c.12.16.43.34.58.29a7.13,7.13,0,0,0,2.35-1.09Zm-54.3,117.2a5.64,5.64,0,0,0-2.37.9.55.55,0,0,0-.21.4,1.83,1.83,0,0,0,.1.7q2,4.85,4,9.68a3.861,3.861,0,0,0,.57.78l2.26-.91a.84.84,0,0,0,.3-.84,1.3,1.3,0,0,0-.14-.45c-1.28-3.08-2.55-6.17-3.84-9.24A2,2,0,0,0,129.38,294.33ZM190.9,160.71l-2.2.92a.69.69,0,0,0-.33.8,1.259,1.259,0,0,0,.15.45l3.84,9.27c.09.22.2.43.31.64a.71.71,0,0,0,.82.3c.66-.26,1.32-.53,2-.83.12-.06.18-.25.32-.46-1.39-3.5-2.87-7-4.36-10.52A2.83,2.83,0,0,0,190.9,160.71Zm-32.65-3.17c.22.57.42,1.09.63,1.61q1.5,3.65,3,7.29c.24.59.49,1.18.75,1.76a4.34,4.34,0,0,0,.41.61c.87-.38,1.6-.69,2.32-1a2.38,2.38,0,0,0,.4-.36c-.12-.37-.22-.75-.36-1.11q-1.82-4.42-3.65-8.84c-.12-.3-.26-.58-.41-.87a.73.73,0,0,0-.83-.28,5.8,5.8,0,0,0-2.26,1.19Zm13.38,7.58a1.72,1.72,0,0,0-.26-1.4c-1.07-2.65-2.19-5.29-3.28-7.94s-1-2.29-3.43-1.1a.78.78,0,0,0-.28.59,1.59,1.59,0,0,0,.19.68q1.86,4.53,3.73,9.05a4.2,4.2,0,0,0,.42.85c.12.17.42.36.57.31a7.38,7.38,0,0,0,2.34-1.04Zm7.31-16.33a7.41,7.41,0,0,0-2.39,1,.63.63,0,0,0-.19.41.94.94,0,0,0,.06.47q2.06,5,4.13,9.91c0,.08.07.15.1.22a.72.72,0,0,0,.81.34c.66-.26,1.32-.52,2-.82.12-.05.18-.24.27-.37-.45-1.47-3.77-9.63-4.41-10.8a1.36,1.36,0,0,0-.38-.36Zm-22,5.37a6.15,6.15,0,0,0,2.46-.88.72.72,0,0,0,.27-.59,3.41,3.41,0,0,0-.28-.91L155.73,143c-.09-.22-.18-.44-.28-.66a.84.84,0,0,0-1-.43c-.59.23-1.18.48-1.76.74a.71.71,0,0,0-.32.82,1.87,1.87,0,0,0,.07.22l4.13,9.92a3.619,3.619,0,0,0,.43.55ZM117.43,282.33a5.69,5.69,0,0,0-2.44.91.55.55,0,0,0-.19.41,1.62,1.62,0,0,0,.11.69q2,4.85,4,9.69a4.07,4.07,0,0,0,.57.76c.79-.32,1.54-.59,2.25-.93.17-.08.26-.38.32-.6a.85.85,0,0,0-.09-.46l-4.12-9.9a3.459,3.459,0,0,0-.41-.57Zm49.5-145.55a7.589,7.589,0,0,0-2.39,1,.63.63,0,0,0-.18.42.9.9,0,0,0,.06.46q2,4.86,4,9.7c.06.15.14.29.21.43a.75.75,0,0,0,.81.33c.66-.26,1.32-.53,2-.83.12-.05.18-.24.33-.46-1.44-3.55-2.86-7.17-4.49-10.71a1.625,1.625,0,0,0-.35-.34ZM72.62,216.12c.2.54.38,1.06.59,1.57q1.19,2.88,2.38,5.75c.46,1.11.93,2.21,1.4,3.31a.72.72,0,0,0,1,.43c.52-.21,1-.42,1.54-.66.27-.13.6-.24.62-.8-1.37-3.32-2.81-6.78-4.25-10.24a1.16,1.16,0,0,0-.26-.39c-.11-.1-.3-.24-.4-.21a5.47,5.47,0,0,0-2.62,1.24Zm1.49,12.27c-.09-.27-.15-.58-.27-.87q-1.86-4.53-3.73-9a3.39,3.39,0,0,0-.43-.85c-.13-.16-.44-.33-.59-.28a6.3,6.3,0,0,0-2.38,1.17,5.54,5.54,0,0,0,.19.88q1.95,4.74,3.92,9.48a4.23,4.23,0,0,0,.23.41.7.7,0,0,0,.79.38q1-.4,2-.87C73.91,228.74,74,228.56,74.11,228.39Zm85.69-92.58q-2.15-5.17-4.3-10.36a4.25,4.25,0,0,0-.57-.75l-2.27.94a.7.7,0,0,0-.28.83c.41,1,.83,2.07,1.26,3.09,1,2.36,2,4.7,3,7.05a.72.72,0,0,0,.95.48c.59-.22,1.19-.43,1.77-.7C159.5,136.3,159.61,136,159.8,135.81ZM59.35,234.64a3.93,3.93,0,0,0,2-.61c.69-.28.84-.63.57-1.3l-4-9.68a1,1,0,0,0-.59-.7,6.82,6.82,0,0,0-2.22.77.83.83,0,0,0-.31.83,3.089,3.089,0,0,0,.12.46l4,9.68A2.771,2.771,0,0,0,59.35,234.64Zm46.13,35.7a5.3,5.3,0,0,0-2.49.91.56.56,0,0,0-.19.42,1.64,1.64,0,0,0,.11.69l4,9.68a1.08,1.08,0,0,0,.72.69c.66-.27,1.4-.54,2.12-.88.16-.08.25-.39.3-.61a.88.88,0,0,0-.09-.46q-2.01-4.845-4-9.68a5.139,5.139,0,0,0-.48-.76Zm1.92-21.57a6.46,6.46,0,0,0,2.45-1c.14-.09.17-.41.19-.64a1,1,0,0,0-.13-.45Q108,242,106,237.25a8.26,8.26,0,0,0-.49-.84,4.78,4.78,0,0,0-2.8,1.14c.4,1.37,3.35,8.74,4.29,10.68a3.241,3.241,0,0,0,.4.54ZM90.58,225.62c1.53,3.73,2.94,7.36,4.58,10.89,0,.13.24.19.43.32.69-.29,1.42-.6,2.14-.92a.68.68,0,0,0,.3-.81,1.259,1.259,0,0,0-.15-.45c-1.28-3.09-2.55-6.18-3.84-9.27a3.43,3.43,0,0,0-.49-.8.5.5,0,0,0-.42-.15A5.6,5.6,0,0,0,90.58,225.62Zm60.59-85.87,2.16-.88a.74.74,0,0,0,.34-.81,2,2,0,0,0-.06-.23q-2-4.85-4-9.69a2.16,2.16,0,0,0-.37-.6.61.61,0,0,0-.42-.17,5.68,5.68,0,0,0-2.2.84.49.49,0,0,0-.23.61q2.19,5.3,4.4,10.57C150.81,139.52,151,139.6,151.17,139.75ZM83.44,224.89c.78-.33,1.44-.6,2.09-.89s.66-.55.44-1.15c0-.08-.07-.15-.1-.22Q84,218,82,213.36a1.86,1.86,0,0,0-.34-.62.81.81,0,0,0-.59-.3,4.73,4.73,0,0,0-2.17.9.58.58,0,0,0-.22.39,2.12,2.12,0,0,0,.17.69q2,4.86,4,9.7a6.072,6.072,0,0,0,.59.77Zm82.26-74.52a3.209,3.209,0,0,0-.14-.64c-1.3-3.16-2.6-6.33-3.93-9.48-.38-.92-.55-1.11-1.64-.71-.45.17-.88.38-1.31.57a.78.78,0,0,0-.29.82,1.549,1.549,0,0,0,.07.23q2,5,4.1,9.92a1,1,0,0,0,.27.39c.1.1.28.24.38.21.74-.27,1.48-.56,2.21-.88.11-.05.16-.25.28-.43Zm7.43,1c-.89-.19-1.55.36-2.28.62a.67.67,0,0,0-.45.94q2.15,5.18,4.31,10.35c.06.13.22.22.34.33a6.25,6.25,0,0,0,2.21-.76.74.74,0,0,0,.37-1q-2.06-5-4.13-9.91a3.719,3.719,0,0,0-.37-.52Zm11.78,12a.9.9,0,0,0-.23,0,5.79,5.79,0,0,0-2.16.93.61.61,0,0,0-.19.42,1.1,1.1,0,0,0,.13.45q2,5,4.1,9.93a1.14,1.14,0,0,0,.27.39c.1.09.29.23.38.2.75-.27,1.49-.55,2.21-.89.15-.07.25-.39.26-.61a1.74,1.74,0,0,0-.21-.67q-1.86-4.53-3.74-9a4.811,4.811,0,0,0-.44-.84c-.07-.17-.29-.22-.38-.3Zm14.19,24.36.76-.25c.3-.12.58-.27.88-.37,1-.31,1.09-.77.75-1.58-1.07-2.57-2.12-5.15-3.19-7.72-.27-.66-.56-1.32-.86-2a.72.72,0,0,0-1-.44,15.88,15.88,0,0,0-1.77.7c-.19.08-.29.36-.47.6,1.47,3.51,2.94,7,4.42,10.55.09.18.25.28.48.52Z" fill="#fff"/>
      </g>
    </g>
  </g>
</svg>
