<svg xmlns="http://www.w3.org/2000/svg" xmlns:xlink="http://www.w3.org/1999/xlink" width="403" height="401" viewBox="0 0 403 401">
  <defs>
    <clipPath id="clip-NYX">
      <rect width="403" height="401"/>
    </clipPath>
  </defs>
  <g id="NYX" clip-path="url(#clip-NYX)">
    <g id="Fichier_6" data-name="Fichier 6" transform="translate(0.015)">
      <g id="Calque_6" data-name="Calque 6">
        <path id="Tracé_8" data-name="Tracé 8" d="M249.08,355.58a24.346,24.346,0,0,1-3.46-1.63Q159.22,296.41,72.86,238.8,37.22,215,1.71,191a4.21,4.21,0,0,1-1.68-3q-.09-49.47,0-98.94c0-.29.25-.57.6-1.34H42.27c11.15,0,9.68-1.38,9.7,9.91q.07,43.23,0,86.46c0,6.67,0,6.67-6.46,6.68H5.75L249.91,354C249.63,354.5,249.35,355,249.08,355.58Zm-199.55-167V90.09H2.35v98.53Z" fill="#fff"/>
        <path id="Tracé_9" data-name="Tracé 9" d="M62.05,190.84V88.19h50.72V189l249.06,97.74-.15,1.15c-1.14,0-2.42.34-3.4-.05q-61.84-24.3-123.63-48.71-60-23.59-120.11-47a22.14,22.14,0,0,0-7.69-1.28C92.07,190.78,77.28,190.84,62.05,190.84ZM64.39,90v98.53h46.18V90Z" fill="#fff"/>
        <path id="Tracé_10" data-name="Tracé 10" d="M.12,76.84V.13H51.73c.09,1.36.27,2.79.27,4.22,0,22.29-.09,44.58.1,66.87,0,4.32-1.14,5.78-5.6,5.71C31.22,76.68,15.93,76.84.12,76.84Zm49.45-2.18V2.13H2.39V74.66Z" fill="#fff"/>
        <path id="Tracé_11" data-name="Tracé 11" d="M62.31,0h50.43V76.43H62.31Zm2.08,2V74.48h46.18V2Z" fill="#fff"/>
        <path id="Tracé_12" data-name="Tracé 12" d="M388.13,343.39c-3.24,6.76-3.36,7.06-9.67,4.37-9.88-4.2-19.58-8.86-29.35-13.33L338,329.37c2.79-7.2,2.82-7.28,9.85-4.15C361.25,331.19,374.57,337.26,388.13,343.39Z" fill="#fff"/>
        <path id="Tracé_13" data-name="Tracé 13" d="M259.85,286.85c-.81,2.15-1.52,4.06-2.43,6.47l-45.72-21,3.06-6.07Z" fill="#fff"/>
        <path id="Tracé_14" data-name="Tracé 14" d="M150.44,235l-2.78,5L111.8,223.8c.69-2,1.19-3.48,1.88-5.51Z" fill="#fff"/>
      </g>
    </g>
  </g>
</svg>
