
<svg xmlns="http://www.w3.org/2000/svg" xmlns:xlink="http://www.w3.org/1999/xlink" width="333" height="70" viewBox="0 0 333 70">
  <defs>
    <clipPath id="clip-Plan_de_travail_8">
      <rect width="333" height="70"/>
    </clipPath>
  </defs>
  <g id="Plan_de_travail_8" data-name="Plan de travail – 8" clip-path="url(#clip-Plan_de_travail_8)">
    <g id="Groupe_27" data-name="Groupe 27" transform="translate(-825.777 -17.915)">
      <path id="Tracé_75" data-name="Tracé 75" d="M17.418-19.318,12.291-5.578,7.164-19.318H2.488V0H5.824V-14.424L10.609-1.682h3.363l4.785-12.742V0h3.336V-19.318ZM26.146,0h3.787l1.559-4.2h7.4L40.433,0h3.746l-7.7-19.318h-2.6Zm6.439-7.164L35.2-14.219l2.6,7.055ZM50.255,0h3.473V-16.215h6.043v-3.1H44.2v3.1h6.057ZM68.348,0h3.473V-16.215h6.043v-3.1H62.292v3.1h6.057ZM82.039,0h3.473V-8.066h8.463V0h3.473V-19.318H93.975v8.066H85.512v-8.066H82.039Zm21.785,0H107.3V-19.318h-3.473Zm9.849,0h12.852V-3.281h-9.379V-8.066h8.736v-3.186h-8.736v-4.881h9.379v-3.186H113.673ZM139.04.273c5.182,0,7.4-3.076,7.4-7.943V-19.318h-3.473V-7.93c0,3.117-.807,4.854-3.924,4.854s-3.924-1.736-3.924-4.854V-19.318h-3.459V-7.533C131.657-2.8,133.859.273,139.04.273ZM160.516,0h7.533c3.281,0,6.3-2.01,6.3-5.605a5.366,5.366,0,0,0-3.1-4.73,4.363,4.363,0,0,0,2.146-3.773c0-3.869-3.24-5.209-6.18-5.209h-6.7Zm3.473-11.539v-4.648h3.281c1.654,0,2.939.766,2.939,2.27,0,1.9-1.312,2.379-2.666,2.379Zm0,8.23V-8.545h3.979a2.7,2.7,0,0,1,2.967,2.557c0,1.818-1.039,2.68-2.83,2.68ZM179.334,0h11.73V-3.281h-8.258V-19.318h-3.473Zm13.828,0h3.787l1.559-4.2h7.4L207.449,0h3.746l-7.7-19.318h-2.6ZM199.6-7.164l2.611-7.055,2.6,7.055ZM215.247,0h3.473V-5.018l3.924-4.061L228.6,0h4.32L225.05-11.4l7.725-7.916h-4.648L218.72-9.242V-19.318h-3.473Zm21.785,0h12.852V-3.281H240.5V-8.066h8.736v-3.186H240.5v-4.881h9.379v-3.186H237.032Z" transform="translate(896.135 65.352)" fill="#fff"/>
      <path id="Tracé_74" data-name="Tracé 74" d="M10.244-33.852v9H4.056v3.432h6.188v8.684H3.224v3.484H48.776V-12.74H42.744v-8.684H48v-3.432H42.744v-9.152H46.9v-3.536H12.584a32.431,32.431,0,0,0,1.872-4.576l-3.64-.468A23.226,23.226,0,0,1,2.7-31.46L4.992-28.5A28.4,28.4,0,0,0,10.244-33.852ZM13.832-12.74v-8.684h5.98v8.684Zm9.62,0v-8.684h6.084v8.684Zm9.672,0v-8.684H39.1v8.684ZM39.1-24.856h-5.98v-9.152H39.1Zm-9.568,0H23.452v-9.152h6.084Zm-9.724,0h-5.98v-9.152h5.98ZM9.88-7.02A42.711,42.711,0,0,1,3.952,3.172L7.02,5.408a49.332,49.332,0,0,0,6.032-10.92ZM21.216-5.928l-3.432.78A80.539,80.539,0,0,1,20.228,5.1l3.8-.832C23.192.624,22.256-2.808,21.216-5.928ZM32.4-6.24l-3.484.78A58.846,58.846,0,0,1,32.344,4.888l3.744-.832A77.013,77.013,0,0,0,32.4-6.24Zm9.828-1.04L39.312-5.46A86.866,86.866,0,0,1,46.02,5.252l3.12-2.184A86.861,86.861,0,0,0,42.224-7.28Z" transform="translate(826 72.5)" fill="#fff"/>
    </g>
  </g>
</svg>