<svg xmlns="http://www.w3.org/2000/svg" xmlns:xlink="http://www.w3.org/1999/xlink" width="788" height="358" viewBox="0 0 788 358">
  <defs>
    <clipPath id="clip-path">
      <rect id="Rectangle_1885" data-name="Rectangle 1885" width="788" height="358"/>
    </clipPath>
  </defs>
  <g id="illu" clip-path="url(#clip-path)">
    <g id="Groupe_1" data-name="Groupe 1" transform="translate(-831 -249)">
      <path id="Tracé_15" data-name="Tracé 15" d="M522.5-122.672a113.06,113.06,0,0,1-3.041,24.758q-3.041,13.465-5.869,13.465a1.92,1.92,0,0,1-1.628-.543,1.92,1.92,0,0,1-.543-1.628,6.9,6.9,0,0,1,.434-1.955,90.344,90.344,0,0,0,5.869-32.793q0-27.365-16.288-43.979t-43-16.614q-35.829,0-73.839,23.672Q415-135.7,415-105.516q0,48.43-65.8,57.552,54.077,18.894,54.077,69.279,0,37.355-31.814,65.37A109.021,109.021,0,0,1,297.071,114.7q-20.415,0-32.467-10.533T252.558,75.61q0-27.8,25.518-55.053T329.438-6.7q14.333,0,23.456,9.013t9.121,23.13q0,8.469-5.212,21.067t-8.469,12.6q-2.389,0-2.389-1.737a6.667,6.667,0,0,1,.869-2.605q11.294-16.5,11.294-29.754,0-12.38-8.031-19.979T329.01-2.57q-24.542,0-48,25.843T257.546,76.044a32.039,32.039,0,0,0,9.773,23.89,33.411,33.411,0,0,0,24.324,9.557q33.229,0,60.917-32.251T380.25,6.332q0-36.052-34.748-52.99l-12.6,1.52a83.962,83.962,0,0,1-10.424.652q-16.5,0-16.5-5.43,0-3.909,13.682-3.909,9.773,0,25.843,3.909,22.586-6.95,35.726-24.324a64.462,64.462,0,0,0,13.139-39.96q0-21.717-16.722-39.309-47.566,36.486-89.476,123.79Q262.326,23.922,240.825,48.03q-20.852,23.237-59.291,42.343-45.4,22.157-81.007,22.157-29.1,0-48.431-13.354T32.768,65.838a29.1,29.1,0,0,1,6.624-19.112Q46.016,38.7,55.145,38.7q13.248,0,13.248,14.769a18.741,18.741,0,0,1-4.452,12.6,13.878,13.878,0,0,1-10.965,5.212q-11.292,0-10.858-11.728.218-4.778-.868-4.778-3.475,0-3.475,11.51Q37.763,84.3,55.463,96.242t44.632,11.944q47.566,0,86.219-35.182a223.992,223.992,0,0,0,29.1-31.814q12.38-16.614,56.678-84.373a568.232,568.232,0,0,1,51.685-65.807q30.188-33.445,50.6-47.566-34.314-28.88-99.466-28.88-91.649,0-159.408,66.239Q59.911-64.9,59.911-16.908q0,24.324,15.637,38.657T117.9,36.082q43.653,0,90.237-41.916t46.584-81.44q0-31.491-32.359-31.491T152.972-82.82q-37.029,35.942-37.029,67.643a19.172,19.172,0,0,0,5.215,13.471A16.078,16.078,0,0,0,133.32,3.941q3.693.652,3.693,1.737,0,1.955-4.127,1.955-10.424,0-17.592-9.447a37.156,37.156,0,0,1-7.167-23.13q0-33.667,37.137-65.7t76.228-32.033q37.355,0,37.355,34.53,0,42.132-47.566,85.133t-93.816,43q-30.188,0-48.322-18.134T51.01-26.68q0-61.466,69.388-112.172t153.436-50.711q63.2,0,107.285,28.45Q420.862-185.87,458-185.87q29.1,0,46.794,17.374T522.5-122.672Z" transform="translate(831 494)" fill="#fff"/>
      <g id="Group_1332" data-name="Group 1332" transform="translate(44.353 1172.078) rotate(-45)">
        <line id="Ligne_1" data-name="Ligne 1" x2="225" transform="translate(1266.5 474.5)" fill="none" stroke="#fff" stroke-linecap="round" stroke-width="7"/>
        <line id="Ligne_2" data-name="Ligne 2" x2="225" transform="translate(1294.5 503.5)" fill="none" stroke="#fff" stroke-linecap="round" stroke-width="7"/>
        <line id="Ligne_3" data-name="Ligne 3" x2="225" transform="translate(1324.5 532.5)" fill="none" stroke="#fff" stroke-linecap="round" stroke-width="7"/>
        <line id="Ligne_4" data-name="Ligne 4" x2="225" transform="translate(1353.5 561.5)" fill="none" stroke="#fff" stroke-linecap="round" stroke-width="7"/>
        <line id="Ligne_5" data-name="Ligne 5" x2="225" transform="translate(1382.5 590.5)" fill="none" stroke="#fff" stroke-linecap="round" stroke-width="7"/>
      </g>
    </g>
  </g>
</svg>
