<svg xmlns="http://www.w3.org/2000/svg" xmlns:xlink="http://www.w3.org/1999/xlink" width="788" height="358" viewBox="0 0 788 358">
  <defs>
    <clipPath id="clip-Biographie">
      <rect width="788" height="358"/>
    </clipPath>
  </defs>
  <g id="Biographie" clip-path="url(#clip-Biographie)">
    <g id="Groupe_1" data-name="Groupe 1" transform="translate(-831 -249)">
      <path id="Tracé_15" data-name="Tracé 15" d="M349.875-146.25a73.207,73.207,0,0,1-1.969,16.031q-1.969,8.719-3.8,8.719a1.243,1.243,0,0,1-1.406-1.406,4.464,4.464,0,0,1,.281-1.266,58.5,58.5,0,0,0,3.8-21.234q0-17.719-10.547-28.477t-27.844-10.758q-23.2,0-47.812,15.328,19.688,14.625,19.688,34.172,0,31.359-42.609,37.266,35.016,12.234,35.016,44.859,0,24.188-20.6,42.328A70.593,70.593,0,0,1,203.906,7.453q-13.219,0-21.023-6.82t-7.8-18.492q0-18,16.523-35.648t33.258-17.648q9.281,0,15.188,5.836t5.906,14.977q0,5.484-3.375,13.641t-5.484,8.156q-1.547,0-1.547-1.125a4.317,4.317,0,0,1,.563-1.687q7.313-10.687,7.313-19.266,0-8.016-5.2-12.937t-13.641-4.922q-15.891,0-31.078,16.734T178.313-17.578a20.746,20.746,0,0,0,6.328,15.469,21.634,21.634,0,0,0,15.75,6.188q21.516,0,39.445-20.883t17.93-45.914q0-23.344-22.5-34.312l-8.156.984a54.369,54.369,0,0,1-6.75.422q-10.687,0-10.687-3.516,0-2.531,8.859-2.531,6.328,0,16.734,2.531,14.625-4.5,23.133-15.75a41.74,41.74,0,0,0,8.508-25.875q0-14.062-10.828-25.453-30.8,23.625-57.937,80.156-16.734,34.734-30.656,50.344Q153.984-20.672,129.094-8.3,99.7,6.047,76.641,6.047,57.8,6.047,45.281-2.6T32.766-24.187a18.841,18.841,0,0,1,4.289-12.375q4.289-5.2,10.2-5.2,8.578,0,8.578,9.563a12.135,12.135,0,0,1-2.883,8.156,8.986,8.986,0,0,1-7.1,3.375q-7.312,0-7.031-7.594.141-3.094-.562-3.094-2.25,0-2.25,7.453Q36-12.234,47.461-4.5t28.9,7.734q30.8,0,55.828-22.781a145.038,145.038,0,0,0,18.844-20.6q8.016-10.758,36.7-54.633A367.948,367.948,0,0,1,221.2-137.391q19.547-21.656,32.766-30.8-22.219-18.7-64.406-18.7-59.344,0-103.219,42.891-36,35.156-36,66.234,0,15.75,10.125,25.031t27.422,9.281q28.266,0,58.43-27.141t30.164-52.734q0-20.391-20.953-20.391T110.6-120.445q-23.977,23.273-23.977,43.8A12.414,12.414,0,0,0,90-67.922a10.411,10.411,0,0,0,7.875,3.656q2.391.422,2.391,1.125,0,1.266-2.672,1.266-6.75,0-11.391-6.117a24.059,24.059,0,0,1-4.641-14.977q0-21.8,24.047-42.539t49.359-20.742q24.188,0,24.188,22.359,0,27.281-30.8,55.125T87.609-40.922q-19.547,0-31.289-11.742T44.578-84.094q0-39.8,44.93-72.633t99.352-32.836q40.922,0,69.469,18.422,25.734-16.031,49.781-16.031,18.844,0,30.3,11.25T349.875-146.25Z" transform="translate(831 494)" fill="#fff"/>
      <line id="Ligne_1" data-name="Ligne 1" x2="225" transform="translate(1266.5 474.5)" fill="none" stroke="#fff" stroke-width="3"/>
      <line id="Ligne_2" data-name="Ligne 2" x2="225" transform="translate(1294.5 503.5)" fill="none" stroke="#fff" stroke-width="3"/>
      <line id="Ligne_3" data-name="Ligne 3" x2="225" transform="translate(1324.5 532.5)" fill="none" stroke="#fff" stroke-width="3"/>
      <line id="Ligne_4" data-name="Ligne 4" x2="225" transform="translate(1353.5 561.5)" fill="none" stroke="#fff" stroke-width="3"/>
      <line id="Ligne_5" data-name="Ligne 5" x2="225" transform="translate(1382.5 590.5)" fill="none" stroke="#fff" stroke-width="3"/>
    </g>
  </g>
</svg>
