<svg xmlns="http://www.w3.org/2000/svg" width="126.806" height="131.066" viewBox="0 0 126.806 131.066">
  <path id="Path_2427" data-name="Path 2427" d="M27.974-92.442v24.566h-16.9V-58.5h16.9V-34.79H8.8v9.514H133.2V-34.79H116.724V-58.5h14.342v-9.372H116.724V-92.868h11.36v-9.656H34.364a88.562,88.562,0,0,0,5.112-12.5l-9.94-1.278C25.56-104.37,18.176-94.288,7.384-85.91l6.248,8.094A77.55,77.55,0,0,0,27.974-92.442Zm9.8,57.652V-58.5H54.1V-34.79Zm26.27,0V-58.5H80.656V-34.79Zm26.412,0V-58.5h16.33V-34.79Zm16.33-33.086H90.454V-92.868h16.33Zm-26.128,0H64.042V-92.868H80.656Zm-26.554,0H37.772V-92.868H54.1ZM26.98-19.17A116.634,116.634,0,0,1,10.792,8.662l8.378,6.106a134.714,134.714,0,0,0,16.472-29.82Zm30.956,2.982-9.372,2.13a219.933,219.933,0,0,1,6.674,27.974L65.6,11.644C63.332,1.7,60.776-7.668,57.936-16.188Zm30.53-.852-9.514,2.13a160.7,160.7,0,0,1,9.372,28.258l10.224-2.272A210.305,210.305,0,0,0,88.466-17.04ZM115.3-19.88l-7.952,4.97A237.21,237.21,0,0,1,125.67,14.342l8.52-5.964A237.2,237.2,0,0,0,115.3-19.88Z" transform="translate(-7.384 116.298)" fill="#fff"/>
</svg>
