<svg xmlns="http://www.w3.org/2000/svg" xmlns:xlink="http://www.w3.org/1999/xlink" width="341" height="316" viewBox="0 0 341 316">
  <defs>
    <clipPath id="clip-Kurosawa-s-grave">
      <rect width="341" height="316"/>
    </clipPath>
  </defs>
  <g id="Kurosawa-s-grave" clip-path="url(#clip-Kurosawa-s-grave)">
    <g id="Fichier_5" data-name="Fichier 5">
      <g id="Calque_5" data-name="Calque 5">
        <path id="Tracé_2" data-name="Tracé 2" d="M173.17,246.52c-4,5.39-10.14,6.93-15.41,9.85L147.62,252c-1-2-2.16-4.19-3.38-6.55-.82-4.84,1.34-9.71,1-14.82s-.07-10-.07-15c0-14.16.09-28.31,0-42.47-.08-9.21,1.49-18.32,1.12-27.56-.38-9.48-.08-19-.08-28.48,0-9.32-.14-18.65.07-28,.07-3.18,1.16-6.31,1-9.58a91,91,0,0,1,0-9.49c.07-1.38.75-2.71.92-4.09s-.06-2.67.08-4c.06-.56.62-1.06,1-1.63-.67-1.69-1.43-3.38-2-5.14-.3-1,.64-1.81.82-2.6a27.51,27.51,0,0,0,.15-6v-6c3.25-3.35,6.48-6.73,11-8.77l13.78,11.16a60.17,60.17,0,0,0,2,10.49c.49,1.55.78,3.41-.65,5.09-.94,1.1-1.25,2.75-1.85,4.17l2.82,5.47c-.39,2.42-.73,5.57-1.43,8.64-.78,3.39-.9,5.15,0,8.43a11,11,0,0,1,.31,2.86q0,58,0,115.91c-1.66,7-.88,14-1,21.07S173.17,239.56,173.17,246.52Zm-2-2.08c0-6.71-.07-13.7,0-20.7s.21-13.71.77-20.59c.81-9.93.21-20,.21-30v-30c0-10,.18-20,0-30s1-19.76-.91-29.59c-.79-4,.85-8,1.12-12,0-.51.69-1,.82-1.17a23.578,23.578,0,0,0-1.61-4.28c-1.82-2.9-1.76-5.53.37-8.23a7.31,7.31,0,0,0,1-2.26c-.74-4-1.38-7.43-2.11-11.37l-11.6-9.07h-1.52l-7.5,7.52c0,1.88.15,3.88,0,5.85s1,4.33-.93,6.11C151,56.57,152,59.1,151,61.27c-1.46,3.19-.71,6.55-1.67,9.79-.9,3.06-.47,6.63-.12,9.93.38,3.5-1.11,6.68-1.1,10.09.07,12.49.22,25,0,37.49s.3,25-.71,37.59c-1,13.08-.09,26.31-.27,39.47s1,26.09-.66,36.16c.89,9.49,6.79,10,11.19,12C162.9,251.65,167.77,249.26,171.17,244.44Z" fill="#fff"/>
        <path id="Tracé_3" data-name="Tracé 3" d="M323.17,270.79c-2.6,1.9-4.15,5-7.3,6.41-2.68,1.18-5.33,2.43-8.16,3.73-3.2-1.23-6.58-2.55-10.14-3.93-1-2-2.13-4.2-3.38-6.64,2-26.5.54-53.36,1-80.2,2.08-12.47.7-25,.94-37.56s.1-25,0-37.47c0-3.41,1.48-6.58,1.1-10.08a66.477,66.477,0,0,1,0-10,45.077,45.077,0,0,1,1-5.09c.27-1.69.46-3.39.81-6-.11-.25-.61-1.38-1.06-2.52-.28-.72-.91-1.65-.68-2.17,2-4.44.35-9.09,1.07-13.69l8.37-8.37h2.81c4.54,3.49,9,6.9,13.46,10.35.77,3.73.81,7.71,2.15,11.47.33.91-.13,2.22-.53,3.23-.68,1.71-1.6,3.33-2.39,4.92.74,1.6,1.46,3.14,2.15,4.68.31.7.93,1.52.78,2.13-.64,2.64-.72,5.35-1.27,8-.72,3.52-.9,5.2,0,8.43a10.56,10.56,0,0,1,.33,2.86V229.19c-1.63,6.79-.89,13.7-1,20.57S323.17,263.7,323.17,270.79Zm-2-1.09c0-6.78-.2-13.61.06-20.43.25-6.53-.35-13,.7-19.62s.24-13.63.24-20.46v-70c0-5,.09-10,0-15s.4-10.07-.88-15.11c-1.13-4.48,1.07-9,1.08-13.51,0-.49.68-1,1.1-1.55-4.26-4.76-3.76-9.43-.5-13.31-.75-4.26-1.38-7.8-2.05-11.54l-12.17-9.75-8.55,7.26c0,2.16.13,4.33,0,6.48s.85,4.59-.92,6.58A6.06,6.06,0,0,1,301,86.37a20.13,20.13,0,0,0-.86,4.64c-.2,1.71-.84,3.39-.93,5.09a91.219,91.219,0,0,0,0,9.5c.19,3.28-.92,6.41-1,9.59-.18,12.82.1,25.66-.12,38.49s1.08,25.43-.95,38.08q0,33.75-.05,67.5a78.365,78.365,0,0,1-1,9c1.3,2.56,2.34,4.63,3.33,6.59,1.39.77,2.78,1.46,4.07,2.3,2.39,1.55,4.72,1.23,7.14.07,1.67-.8,3.6-1.17,5.06-2.21a38.2,38.2,0,0,0,4.65-4.53Z" fill="#fff"/>
        <path id="Tracé_4" data-name="Tracé 4" d="M5.12,84.09l-2.19-4.3,1.22-2.45V65.74l8.56-8.48c3.06-.78,4.94,1.53,7.06,3.09,3.08,2.27,6,4.76,9.15,7.28.89,3.56.66,7.58,2.17,11.32.36.88-.07,2.23-.47,3.23C29.93,83.9,29,85.5,28.07,87.3a18.67,18.67,0,0,1,2,3.55c.61,1.83,2.4,3.74.2,5.71.37,4.87-2.84,9.67-.2,14.63.41.78.06,2,.06,3V228.06c-2.09,14.15-.39,28.38-1.13,42.45-3.76,5.52-9.3,8.5-15.72,10.31L3.59,277,0,270c.34-3.42,1.09-7.59,1.11-11.77.12-22,0-44,.09-65.95,0-5.2,1.34-10.31,1-15.57s-.06-10.33-.06-15.49V129.71c0-5.33-.67-10.77.17-16,1-6.24.6-12.41.81-18.6.07-1.92,1.35-3.51,1.11-5.59C4.08,87.91,4.76,86.17,5.12,84.09ZM5.57,275c1.9.87,3.79,1.37,5.21,2.48a3.07,3.07,0,0,0,3.17.66c3.14-1.66,7-1.8,9.57-4.73,1.18-1.35,2.56-2.53,3.65-3.59v-15.4c0-4.83.29-9.69-.08-14.49-.39-5,1.13-9.69,1.12-14.59-.08-30,.06-60-.11-90,0-8.69,1-17.43-.88-26.1-1-4.54,1.15-9,1-13.56,0-.46.72-1,1.25-1.58-4.39-4.69-4-9.36-.53-13.33-.71-4.2-1.35-7.77-2.04-11.57L14.71,59.42c-2.85,2.43-5.79,4.93-8.79,7.5v12c0,.24-.45.47-.69.71C6.86,81.58,7.88,84,7,86.26a19,19,0,0,0-.89,4.63c-.21,1.71-.85,3.38-.93,5.09a68,68,0,0,0,0,10c.37,3.5-1.1,6.68-1.09,10.09,0,12.5.21,25,0,37.5s.31,25-.71,37.6c-1,12.91-.07,26-.28,39s1.06,25.76-1,38.17Z" fill="#fff"/>
        <path id="Tracé_5" data-name="Tracé 5" d="M253.86,269.33,245.59,266l-3.42-6.73c0-14-.8-28.55.24-42.95.91-12.56.47-25.06.71-37.58s-.59-25.35.27-37.95c.6-8.88.62-17.72.75-26.58s0-17.66.07-26.48c0-1.7.68-3.38.94-5.08s0-3.36.83-5.17-.07-4.13-.26-6.23A26.6,26.6,0,0,1,245.2,68c.14-4.7.39-9.39.61-14.18l10.36-8.88c1.15,1.07,2.28,2.22,3.51,3.24s2.34,1.61,3.45,2.5c2,1.61,4.06,3.19,5.92,5a7.29,7.29,0,0,1,2.18,5.1c.22,3.52.81,7,1.19,10.09-1,1.85-1.68,3.22-2.44,4.7,1.35,3.25,2.88,6.57,2.14,10.11-1.88,9-.68,18-.9,27.08s-.14,18.32,0,27.47c.07,5.2,1.33,10.31,1,15.58s.49,10.39-.17,15.47c-1.57,12-.67,24-.85,36.07s0,24,0,36c0,2.9-1.36,5.6-1.05,8.59.28,2.8.06,5.66.06,8.72A25,25,0,0,1,253.86,269.33Zm.67-2c3-.67,5.09-2.41,7.6-3.31s4.19-3.48,6-5.11c.16-5.8.55-11.16.84-16.52.64-12.12.09-24.3.23-36.46s-.62-24.39.87-36.58c.58-4.76-.2-9.67.18-14.47s-1.21-9.35-1.1-14.08c.48-19.68-1-39.4.94-58.32-1.08-2.71-1.91-4.81-2.68-6.75l2.85-5.51c-.12-1.27.2-3.29-.56-4.77-1-2-.07-3.9-.79-6.26-3.42-4.37-8.52-7.44-13.13-10.86l-7.61,7.57a3.56,3.56,0,0,1,0,1.42c-1.9,4.08-.67,8.36-.85,12.54,1.87,2.72.44,5.77.88,8.63-1.54,1.46-.8,3.36-1,5.08-.25,1.87-.91,3.72-.94,5.59-.1,8.66.1,17.32-.08,26s.37,17.37-.78,26.09c-.9,6.88-.18,14-.18,21v21c0,7,.13,14,0,21s-.82,13.71-.92,20.58c-.16,11.32,0,22.65,0,32.17,1.22,7,5.91,8.35,10.23,10.29Z" fill="#fff"/>
        <path id="Tracé_6" data-name="Tracé 6" d="M101,234.66c-3.38,5-8.79,7.08-14.33,9.72l-10-4.21-3.49-6.84c0-5.13-.13-10.63,0-16.12.2-6.86.77-13.71.93-20.57s0-14,0-21V155.18c0-7-.71-14.07.16-21,1.45-11.54.56-23,.79-34.57s.15-23.31-.05-35c0-2.06,1.11-3.64,1.14-5.58s-.52-3.82.87-5.65c.56-.75,0-2.27.11-3.43a16.941,16.941,0,0,1,.63-2.51L76,44c.41-4.57.88-9.9,1.38-15.51,3.12-2.57,5.45-6.56,10.25-8.45l14.13,11c.71,4.69,1.36,8.9,2.11,13.83-.59,1.17-1.57,3.1-2.71,5.33l2.95,7.05a21.281,21.281,0,0,0-.91,2.91c-1.85,11-1.65,22.11-.77,33,1,12.39.46,24.72.7,37.07s0,24.64.1,37c0,4.09-1.5,7.94-1.13,12.08s.08,8.32.08,12.48v24.48c0,4.16.12,8.33-.06,12.49A38.681,38.681,0,0,1,101,234.66ZM80.78,48.06c-2.14,1-1.56,2.89-1.61,4.64,0,.66.28,1.62,0,1.95-1.91,1.85-.22,4.26-1,6.09a14.45,14.45,0,0,0-.91,6.13c0,11.33.19,22.67-.06,34s.21,22.7-.7,34.11c-1,13.08-.15,26.31-.27,39.48s.57,26.07-.88,39.09c-.57,5.1.09,10.33-.16,15.48a12.86,12.86,0,0,0,2.08,7.17c2,3.64,7.21,5.24,11.31,4.29a19.39,19.39,0,0,0,10.44-6.6,40.609,40.609,0,0,0,1.18-6.3c.17-5.16.06-10.33.06-15.5v-15c0-5.16.16-10.34,0-15.49s.87-10.07,1-15.09c.24-12,.27-24,0-36s.53-24-.74-36.1c-1-9.4-.22-19-.18-28.48a12.89,12.89,0,0,1,.53-2.77c.72-3,1.07-6.08-.59-8.88-1.08-1.81-1-3.67-.95-5.48a8.1,8.1,0,0,0,2-6.3c-.42-3.33-.82-6.66-1.24-10L87.27,22.94l-8.21,6.81c0,2.42.64,5-.14,7C77.4,40.63,78.15,43.85,80.78,48.06Z" fill="#fff"/>
        <path id="Tracé_7" data-name="Tracé 7" d="M223.87,11.25c.81,4.2,1,7.83,2.1,11.35a6.36,6.36,0,0,1-.43,3.66,45.754,45.754,0,0,1-2.24,4.65c.86,1.78,1.91,3.68,2.7,5.68.33.87.54,2.25.09,2.88-1.79,2.53-.66,5.56-1.74,8.29a5.76,5.76,0,0,0,.74,6.07c.5.55.08,1.93.08,2.93V171.65c0,3.56-1.45,6.92-1.08,10.58a109.046,109.046,0,0,1,.08,11v21.35c-2.95,3.6-6.69,5.86-10.67,8.07-3.75,2.08-6.86,1.5-10.26.11-1.43-.58-2.76-1.39-4.35-2.2L195,213c.34-3.43,1.06-7.6,1.11-11.77.16-13.16-.12-26.31.11-39.46.2-11.52-.29-23,.72-34.58s.23-23.29.23-34.94-.52-23.34.2-34.95c.4-6.37.61-12.72.84-19.08a32,32,0,0,1,1-5.08c.31-1.54.64-3.06,1-4.91-.64-1.26-1.41-2.76-2.12-4.13,2-4.79.63-9.6,1.19-14.42L209.1,0ZM224,24.91c-.71-4.22-1.4-8.26-2-12.09L209.6,3.23l-8.6,7.3c.64,6-.83,11.74,1.09,17.36a3,3,0,0,1,0,2.43c-1.19,1.45-.76,3.07-1,4.63a51.686,51.686,0,0,0-.93,5.09,62.622,62.622,0,0,0,0,9.49c.35,3.33-1.14,6.32-1.12,9.58.11,12.5.24,25,0,37.48s.29,25-.71,37.58c-1,13.08-.09,26.3-.27,39.46s1,26.08-1,38.52l3.48,6.82,8.31,3.39c4.78-2.65,10.16-4.09,13.07-8.58,1-14.52-.45-28.7,1-42.92,1-9.89.2-20,.2-30v-30c0-10,.16-20,0-30s.74-19.72-.8-29.59c-.58-3.72.46-7.7.89-11.55.08-.68.77-1.3,1.14-1.87C220.53,33.37,220.51,29,224,24.91Z" fill="#fff"/>
      </g>
    </g>
  </g>
</svg>
